<?xml version="1.0" encoding="UTF-8" standalone="no"?>
<svg
   width="28"
   height="28"
   viewBox="0 0 28 28"
   fill="none"
   version="1.1"
   id="svg10"
   sodipodi:docname="bag.svg"
   inkscape:version="1.1.1 (3bf5ae0d25, 2021-09-20)"
   xmlns:inkscape="http://www.inkscape.org/namespaces/inkscape"
   xmlns:sodipodi="http://sodipodi.sourceforge.net/DTD/sodipodi-0.dtd"
   xmlns="http://www.w3.org/2000/svg"
   xmlns:svg="http://www.w3.org/2000/svg">
  <defs
     id="defs14" />
  <sodipodi:namedview
     id="namedview12"
     pagecolor="#ffffff"
     bordercolor="#666666"
     borderopacity="1.0"
     inkscape:pageshadow="2"
     inkscape:pageopacity="0.0"
     inkscape:pagecheckerboard="0"
     showgrid="false"
     inkscape:zoom="23.650238"
     inkscape:cx="10.063324"
     inkscape:cy="11.33181"
     inkscape:window-width="1600"
     inkscape:window-height="875"
     inkscape:window-x="0"
     inkscape:window-y="0"
     inkscape:window-maximized="1"
     inkscape:current-layer="svg10" />
  <path
     style="fill:#9ba3aa;fill-opacity:0.662662;stroke-width:0.130016"
     d="m 19.075857,27.203191 c -1.407781,-0.450412 -2.344461,-1.298119 -3.031804,-2.743819 -0.3634,-0.764349 -0.40131,-0.963143 -0.396708,-2.080268 0.0065,-1.585976 0.323017,-2.437969 1.29599,-3.488896 2.432098,-2.626959 6.640433,-1.969307 8.179499,1.278243 0.368449,0.777456 0.400686,0.955315 0.400686,2.210653 0,1.144516 -0.04768,1.468579 -0.295024,2.004903 -1.099881,2.384969 -3.735375,3.592575 -6.152639,2.819184 z m 3.163349,-4.010049 c 1.828643,-1.826269 2.179172,-2.23767 2.179172,-2.557591 0,-0.483829 -0.333462,-0.856779 -0.766062,-0.856779 -0.257747,0 -0.749869,0.413362 -2.119001,1.779875 l -1.783288,1.779877 -0.713432,-0.674734 c -0.533763,-0.504812 -0.811765,-0.674736 -1.103894,-0.674736 -0.421819,0 -0.795254,0.387767 -0.795254,0.825771 0,0.136315 0.507902,0.766881 1.128671,1.401253 0.838146,0.856519 1.214287,1.153411 1.461294,1.153411 0.256781,0 0.829493,-0.496226 2.511794,-2.176347 z M 6.3620907,26.149328 C 5.6383545,25.978455 4.8943579,25.361691 4.4989667,24.604826 L 4.1357821,23.909611 V 15.043846 6.1780813 L 4.4671789,5.513055 C 4.8671478,4.7104232 5.5200276,4.1843275 6.3990935,3.9563004 7.5743086,3.6514542 7.5162159,3.5791388 7.5162159,5.3469255 V 6.907126 H 14.212072 20.90793 V 5.3290247 3.7509246 l 0.724713,0.085181 c 0.398594,0.046848 0.948129,0.1991534 1.221189,0.338458 0.636196,0.3245643 1.350525,1.1593783 1.54367,1.8040466 0.102595,0.3424322 0.150894,2.0275178 0.150894,5.2646818 v 4.76105 L 23.800799,15.62746 c -1.40993,-0.710782 -1.336758,-0.705489 -9.263685,-0.670129 -6.052498,0.02701 -7.4156234,0.06554 -7.7417026,0.218925 -0.9328433,0.438786 -1.1057224,1.72738 -0.3253057,2.424742 l 0.4001292,0.357545 h 3.8102991 3.810301 l -0.491613,0.978196 c -0.270386,0.538009 -0.529768,1.181591 -0.576404,1.430183 l -0.08479,0.451983 h -3.053776 c -3.3806955,0 -3.6865933,0.05906 -4.1217279,0.795677 -0.3447923,0.583686 -0.2127799,1.372174 0.3075841,1.83716 l 0.4001291,0.357546 h 3.2237847 3.223785 l 0.160782,0.617579 c 0.08843,0.33967 0.296023,0.895489 0.461317,1.23516 l 0.300539,0.617578 -3.719659,-0.01331 C 8.4749725,26.25903 6.6035612,26.206339 6.3620917,26.149327 Z M 22.156088,11.665733 c 0.360197,-0.360196 0.442058,-0.541617 0.442058,-0.979698 0,-0.627154 -0.280372,-1.115182 -0.792952,-1.380248 C 21.247952,9.017627 7.2903691,9.025818 6.7318607,9.314687 5.8533485,9.768983 5.7131141,11.073865 6.4701057,11.750299 l 0.4001292,0.357544 h 7.4219001 7.421897 z M 9.693994,5.4665281 C 9.4986353,5.3527436 9.4664657,5.1271883 9.4664657,3.8712778 c 0,-0.9643217 0.053166,-1.515889 0.1560201,-1.6187482 0.092539,-0.092541 0.5553762,-0.1584882 1.1376452,-0.1620882 l 0.981624,-0.00608 0.26102,-0.5315979 c 0.404429,-0.8236712 0.916759,-1.0386351 2.361585,-0.9908743 1.061949,0.035103 1.230939,0.074978 1.54445,0.3644604 0.19362,0.1787722 0.43304,0.5151909 0.532047,0.7475954 0.179607,0.4215969 0.182159,0.4225539 1.12739,0.4225539 0.563494,0 1.010597,0.063221 1.103397,0.1560202 0.102877,0.1028777 0.156019,0.6548443 0.156019,1.620632 0,1.3149551 -0.0257,1.4783673 -0.251486,1.5992051 -0.338563,0.1811941 -8.570357,0.1757818 -8.882183,-0.00583 z m 5.020612,-1.8192557 c 0.666024,-0.5238949 0.333265,-1.5507629 -0.502534,-1.5507629 -0.817493,0 -1.179615,0.965659 -0.585073,1.5601992 0.332221,0.3322234 0.656838,0.3294068 1.087607,-0.00947 z"
     id="path1575" />
</svg>
