<?xml version="1.0" encoding="UTF-8" standalone="no"?>
<svg
   width="28"
   height="28"
   viewBox="0 0 28 28"
   fill="none"
   version="1.1"
   id="svg4"
   sodipodi:docname="heart.svg"
   inkscape:version="1.1.1 (3bf5ae0d25, 2021-09-20)"
   xmlns:inkscape="http://www.inkscape.org/namespaces/inkscape"
   xmlns:sodipodi="http://sodipodi.sourceforge.net/DTD/sodipodi-0.dtd"
   xmlns="http://www.w3.org/2000/svg"
   xmlns:svg="http://www.w3.org/2000/svg">
  <defs
     id="defs8" />
  <sodipodi:namedview
     id="namedview6"
     pagecolor="#ffffff"
     bordercolor="#666666"
     borderopacity="1.0"
     inkscape:pageshadow="2"
     inkscape:pageopacity="0.0"
     inkscape:pagecheckerboard="0"
     showgrid="false"
     inkscape:zoom="24.821429"
     inkscape:cx="15.107914"
     inkscape:cy="14.020144"
     inkscape:window-width="1600"
     inkscape:window-height="875"
     inkscape:window-x="0"
     inkscape:window-y="0"
     inkscape:window-maximized="1"
     inkscape:current-layer="svg4" />
  <path
     style="fill:#9ba3aa;stroke-width:0.121108;fill-opacity:1"
     d="m 14.899613,26.409018 c -0.117096,-0.06999 -0.266967,-0.09385 -0.333051,-0.05301 -0.06608,0.04082 -0.120149,0.01332 -0.120149,-0.06114 0,-0.07447 -0.05449,-0.101723 -0.121107,-0.06056 -0.06661,0.04115 -0.121106,0.01712 -0.121106,-0.05341 0,-0.07054 -0.05839,-0.128256 -0.129763,-0.128256 -0.167672,0 -0.47578,-0.308108 -0.47578,-0.475779 0,-0.07137 -0.06358,-0.129765 -0.141293,-0.129765 -0.07771,0 -0.107123,-0.03415 -0.06536,-0.07593 0.04175,-0.04174 -0.0053,-0.270391 -0.104619,-0.508064 -0.159478,-0.381683 -0.159676,-0.484311 -0.0018,-0.879211 0.09839,-0.245898 0.145467,-0.480507 0.104619,-0.521356 -0.04088,-0.04082 -0.01702,-0.07427 0.05289,-0.07427 0.06994,0 0.156726,-0.113045 0.19286,-0.251207 0.03611,-0.138162 0.178731,-0.280763 0.316896,-0.316893 0.138158,-0.03611 0.251204,-0.122919 0.251204,-0.192861 0,-0.06995 0.03584,-0.09131 0.07969,-0.04748 0.04385,0.04381 0.152828,0.019 0.242218,-0.05519 0.116795,-0.09693 0.162527,-0.487343 0.162527,-1.387432 0,-1.119965 -0.02513,-1.26599 -0.237311,-1.379554 -0.130523,-0.06985 -0.280393,-0.117324 -0.333045,-0.105502 -0.05267,0.01181 -0.235193,-0.01798 -0.405633,-0.06624 -0.170441,-0.04825 -0.388436,-0.100686 -0.484431,-0.11652 -0.096,-0.01585 -0.289997,-0.09237 -0.431111,-0.170084 -0.141114,-0.07771 -0.290985,-0.106884 -0.333046,-0.06481 -0.04207,0.04207 -0.07648,0.0037 -0.07648,-0.085 0,-0.08881 -0.03373,-0.12774 -0.07497,-0.0865 -0.04125,0.04125 -0.154628,-0.0047 -0.251982,-0.102037 -0.09736,-0.09735 -0.227113,-0.14604 -0.288353,-0.10819 -0.06124,0.03785 -0.111343,0.01109 -0.111343,-0.05944 0,-0.07054 -0.05579,-0.128257 -0.123958,-0.128257 -0.06818,0 -0.490542,-0.353039 -0.938589,-0.78453 -0.448064,-0.431493 -0.8788813,-0.785733 -0.9573871,-0.787209 -0.078501,-0.0014 -0.2283719,0.08297 -0.333046,0.18764 -0.104674,0.104671 -0.1903112,0.159671 -0.1903112,0.122224 0,-0.09189 -1.248276,0.671336 -1.3606122,0.831914 -0.048939,0.06995 -0.089812,0.07787 -0.090832,0.01759 -9.422e-4,-0.06028 -0.1140531,-0.0081 -0.2511809,0.116034 -0.1638309,0.148268 -0.2405332,0.351954 -0.2236929,0.594035 0.028425,0.408264 -0.20116,0.977815 -0.5261263,1.305328 -0.1165665,0.117478 -0.211939,0.185093 -0.211939,0.150256 0,-0.03484 -0.122622,0.01565 -0.2724928,0.112198 -0.4293981,0.276636 -1.2874297,0.267972 -1.9074548,-0.01928 -0.4205187,-0.194807 -0.5933901,-0.365504 -0.756924,-0.747402 -0.2696909,-0.629803 -0.2696909,-1.325611 0,-1.955412 0.3586968,-0.837665 1.5435906,-1.216763 2.6042557,-0.833222 0.2495469,0.09023 0.4537268,0.206737 0.4537268,0.258893 0,0.05215 0.1907459,0.0037 0.423878,-0.107319 0.2331321,-0.111173 0.423878,-0.246538 0.423878,-0.300812 0,-0.05427 0.077857,-0.09868 0.1730136,-0.09868 0.095154,0 0.2683816,-0.09537 0.384948,-0.211936 0.1165657,-0.116568 0.2158345,-0.193274 0.2205901,-0.170467 0.016566,0.07935 0.6747469,-0.262605 0.6747469,-0.350552 0,-0.0487 0.1362485,-0.122737 0.3027718,-0.164534 0.1665226,-0.04178 0.302771,-0.132669 0.302771,-0.201935 0,-0.06927 0.050729,-0.0946 0.1127397,-0.05627 0.062002,0.03831 0.146968,0.01428 0.1888094,-0.05341 0.1494494,-0.241812 0.4097252,-0.115953 0.6846712,0.331072 0.373774,0.607721 1.187214,1.48358 1.377855,1.48358 0.0843,0 0.185976,0.08521 0.225936,0.189334 0.03996,0.104139 0.127543,0.155421 0.194618,0.113962 0.06708,-0.04147 0.121967,-0.02426 0.121967,0.03818 0,0.09472 0.64732,0.435397 0.847757,0.446174 0.03332,0.0018 0.118873,0.04046 0.19015,0.08591 0.263809,0.168261 0.860756,0.25216 1.626472,0.228591 l 0.787204,-0.02421 v 2.033382 2.033383 l 0.484324,0.251488 c 0.266383,0.138317 0.502,0.343225 0.523594,0.455355 0.02161,0.112131 0.09885,0.203875 0.171674,0.203875 0.07283,0 0.09899,0.03341 0.05814,0.07427 -0.04083,0.04082 0.0063,0.275458 0.104618,0.521357 0.158009,0.394898 0.157812,0.497527 -0.0018,0.879211 -0.09931,0.237671 -0.146381,0.466301 -0.104613,0.508062 0.04179,0.04179 0.01235,0.07594 -0.06536,0.07594 -0.07771,0 -0.141294,0.0584 -0.141294,0.129765 0,0.167669 -0.308108,0.475779 -0.47578,0.475779 -0.07137,0 -0.129762,0.05772 -0.129762,0.128256 0,0.07054 -0.05449,0.09457 -0.121106,0.05341 -0.06661,-0.04115 -0.121108,-0.02879 -0.121108,0.02746 0,0.05626 -0.09537,0.108694 -0.211939,0.116504 -0.116569,0.0078 -0.320938,0.04656 -0.454156,0.0861 -0.133218,0.03955 -0.338022,0.01465 -0.455114,-0.05535 z m 10.022661,-5.691211 c -1.157705,-0.127393 -1.75607,-0.770987 -1.75607,-1.888804 0,-0.398886 -0.05388,-0.554766 -0.211938,-0.613082 -0.116567,-0.04303 -0.239189,-0.114111 -0.272492,-0.158007 -0.104908,-0.138274 -1.751695,-1.026545 -1.846903,-0.996214 -0.04996,0.01593 -0.09083,-0.01679 -0.09083,-0.07273 0,-0.08968 -0.61144,-0.429686 -0.700703,-0.38964 -0.01903,0.0085 -0.117009,-0.06688 -0.217728,-0.167603 -0.151927,-0.151924 -0.157121,-0.230048 -0.03048,-0.458484 0.08395,-0.151442 0.141051,-0.316221 0.126898,-0.366179 -0.01415,-0.04996 0.02879,-0.09083 0.09538,-0.09083 0.06661,0 0.109531,-0.04088 0.09538,-0.09083 -0.01415,-0.04996 0.04225,-0.213455 0.125369,-0.363324 0.0831,-0.149871 0.115256,-0.272493 0.07145,-0.272493 -0.04381,0 -0.02591,-0.06812 0.03978,-0.151385 0.151423,-0.191942 0.167581,-0.346673 0.167581,-1.604685 0,-1.258007 -0.01615,-1.412742 -0.167581,-1.604684 -0.06568,-0.08326 -0.08359,-0.151386 -0.03978,-0.151386 0.0438,0 0.01167,-0.122622 -0.07145,-0.272491 -0.0831,-0.14987 -0.139521,-0.313368 -0.125369,-0.363325 0.01415,-0.04996 -0.02875,-0.09083 -0.09538,-0.09083 -0.06661,0 -0.109531,-0.04088 -0.09538,-0.09083 0.01415,-0.04996 -0.04654,-0.221446 -0.134873,-0.381083 -0.137592,-0.2486695 -0.133459,-0.3054455 0.02884,-0.3962785 0.104196,-0.05831 0.283619,-0.200188 0.398716,-0.315286 0.115096,-0.115096 0.225016,-0.182018 0.244268,-0.148712 0.01928,0.03332 0.132139,-0.02261 0.250864,-0.124279 0.118728,-0.101658 0.254977,-0.183405 0.302772,-0.18166 0.0478,0.0018 0.184045,-0.080006 0.302772,-0.181664 0.118726,-0.1016567 0.254969,-0.1834037 0.302772,-0.1816597 0.0478,0.00181 0.184043,-0.080007 0.302771,-0.1816652 0.118725,-0.1016576 0.25497,-0.1834046 0.302765,-0.1816597 0.0478,0.00181 0.186459,-0.082072 0.308136,-0.1862548 0.121675,-0.1041811 0.314187,-0.2250954 0.427807,-0.2686942 0.143334,-0.055001 0.206574,-0.2168326 0.206574,-0.5286302 0,-0.7490825 0.245121,-1.232443 0.785623,-1.5491977 1.032661,-0.6051764 2.430434,-0.3113906 2.84616,0.5982097 0.490385,1.072955 0.208024,2.2727205 -0.642113,2.7283688 -0.595598,0.319223 -1.593227,0.319457 -2.077124,4.04e-4 -0.1975,-0.1301822 -0.388246,-0.1979492 -0.423882,-0.1505839 -0.03561,0.047364 -0.378151,0.2476969 -0.761156,0.4451899 -0.383004,0.197492 -0.696371,0.405078 -0.696371,0.461307 0,0.05622 -0.04404,0.075 -0.09788,0.04175 -0.05383,-0.03328 -0.251941,0.06234 -0.440228,0.212484 -0.314695,0.2509255 -0.329146,0.2968135 -0.178905,0.5680535 0.0899,0.162295 0.172185,0.335955 0.182874,0.38591 0.01068,0.04996 0.02998,0.104459 0.04289,0.121112 0.0129,0.01665 0.04463,0.193035 0.07049,0.391964 0.02586,0.198931 0.109281,0.621294 0.185396,0.938588 0.103789,0.432644 0.103789,0.721157 0,1.153796 -0.07611,0.317296 -0.159548,0.739665 -0.185396,0.938594 -0.02587,0.198924 -0.05757,0.375313 -0.07049,0.391964 -0.0129,0.01665 -0.03223,0.07115 -0.04289,0.121111 -0.01068,0.04996 -0.09298,0.223616 -0.182874,0.385909 -0.150241,0.271244 -0.13579,0.317126 0.178905,0.568054 0.188287,0.150142 0.386394,0.245756 0.440228,0.212485 0.05383,-0.03328 0.09788,-0.01152 0.09788,0.04833 0,0.09472 0.607368,0.438655 0.700697,0.396786 0.01903,-0.0085 0.118295,0.06818 0.220588,0.170464 0.102296,0.102293 0.259301,0.185986 0.348907,0.185986 0.0896,0 0.183487,0.06171 0.208623,0.137118 0.03118,0.09357 0.177033,0.0692 0.459183,-0.0767 0.974398,-0.503882 2.276205,-0.112325 2.70694,0.81419 0.696233,1.497593 -0.339386,3.047602 -1.920005,2.873671 z m -10.983999,-5.46872 c -1.267679,-0.781971 -1.634542,-2.265786 -0.884603,-3.577917 0.199828,-0.349632 0.405281,-0.635751 0.45656,-0.635817 0.05128,-6.7e-5 0.296523,-0.127409 0.544985,-0.282979 0.350595,-0.219509 0.614468,-0.28053 1.178398,-0.272493 2.017495,0.02875 3.220386,2.128403 2.207009,3.852327 -0.719631,1.224213 -2.323451,1.644077 -3.502349,0.916879 z M 9.9144601,10.656906 C 9.7865196,10.532475 9.6592928,10.45322 9.6317283,10.48078 9.604173,10.508338 9.4908479,10.453178 9.3799118,10.358194 9.2689764,10.263207 9.1298026,10.190591 9.0706411,10.196825 9.0114788,10.203043 8.9297279,10.159886 8.8889763,10.100908 8.7880008,9.9547495 7.5432451,9.2036985 7.5432451,9.2889275 c 0,0.03744 -0.085637,-0.01752 -0.1903113,-0.122229 -0.1046748,-0.104669 -0.2636267,-0.19031 -0.3532321,-0.19031 -0.089606,0 -0.1905629,-0.06812 -0.2243481,-0.1513867 C 6.7347561,8.7249116 6.6800264,8.7154894 6.6138797,8.7971721 6.242046,9.2564215 4.896081,9.3581035 4.191009,8.9802045 3.3666571,8.5383786 3.0674791,7.3008915 3.5370018,6.2750646 3.9170519,5.4447252 5.1113199,5.0873192 6.1453085,5.4944806 c 0.6416623,0.2526724 1.098195,0.9455731 1.0436334,1.583981 -0.030122,0.3525177 0.303824,0.8534275 0.4915991,0.7373743 0.057703,-0.035658 0.104922,-0.01886 0.104922,0.037398 0,0.056224 0.3114768,0.2638087 0.6921774,0.4613013 0.380695,0.1974943 0.7660785,0.4272024 0.856407,0.5104633 0.2721762,0.250888 0.4155193,0.178954 1.2554716,-0.6300167 0.443175,-0.4268312 0.830526,-0.7512989 0.860778,-0.7210475 0.03026,0.030256 0.12394,-0.028057 0.2082,-0.1295835 0.08426,-0.1015251 0.196503,-0.18459 0.249431,-0.18459 0.05293,0 0.359626,-0.1176002 0.681545,-0.2613372 0.321918,-0.1437371 0.639803,-0.2716823 0.706413,-0.2843245 0.06661,-0.012632 0.148359,-0.034422 0.181664,-0.048409 0.03333,-0.013962 0.266079,-0.04703 0.517278,-0.073443 0.251199,-0.026412 0.510069,-0.080982 0.575264,-0.1212761 0.190966,-0.1180217 0.151152,-2.7877323 -0.04399,-2.9496839 -0.08939,-0.074188 -0.19839,-0.099027 -0.242218,-0.055198 -0.0438,0.043828 -0.07969,0.022463 -0.07969,-0.04748 0,-0.069942 -0.113046,-0.1567291 -0.251204,-0.1928593 C 13.81483,3.0896218 13.672229,2.9470159 13.6361,2.8088537 13.59999,2.6706913 13.513181,2.5576495 13.443239,2.5576495 c -0.06994,0 -0.09375,-0.033424 -0.05289,-0.07427 0.04082,-0.040848 -0.0063,-0.2754586 -0.104619,-0.5213553 -0.158009,-0.3948982 -0.157812,-0.4975259 0.0018,-0.8792131 0.09931,-0.2376703 0.146382,-0.4662994 0.104619,-0.5080648 -0.04179,-0.041763 -0.01236,-0.075933 0.06536,-0.075933 0.07771,0 0.141293,-0.058391 0.141293,-0.1297581 0,-0.1676726 0.308109,-0.4757831 0.47578,-0.4757831 0.07137,0 0.129762,-0.0635813 0.129762,-0.1412924 0,-0.0777084 0.03415,-0.10712183 0.07594,-0.0653563 0.04175,0.0417624 0.270392,-0.005316 0.508065,-0.10461781 0.381684,-0.15947881 0.484312,-0.15967347 0.879211,-0.001642 0.245897,0.0983894 0.480509,0.14546708 0.521355,0.10461859 0.04083,-0.0408477 0.07427,-0.0106869 0.07427,0.0670215 0,0.0777084 0.05839,0.14129312 0.129763,0.14129312 0.167672,0 0.475781,0.3081105 0.475781,0.4757823 0,0.071368 0.06358,0.1297589 0.141293,0.1297589 0.0777,0 0.107874,0.033421 0.06702,0.074268 -0.04082,0.040848 0.0063,0.2754581 0.104619,0.5213551 0.15801,0.3948979 0.157812,0.4975261 -0.0018,0.8792127 -0.0993,0.2376705 -0.146383,0.4662994 -0.104615,0.5080647 0.04179,0.041762 0.01872,0.075937 -0.05123,0.075937 -0.06994,0 -0.156733,0.113042 -0.192862,0.2512042 -0.03611,0.1381623 -0.178731,0.2807655 -0.316897,0.3168952 -0.138158,0.036128 -0.251203,0.1170499 -0.251203,0.1798221 0,0.062771 -0.04833,0.084266 -0.107385,0.047762 -0.307471,-0.1900289 -0.38753,0.3289547 -0.352517,2.28533 l 0.03602,2.0129307 -0.787203,-0.023025 c -0.896198,-0.026184 -1.444414,0.056292 -1.84325,0.277344 -0.15188,0.084182 -0.31702,0.1414749 -0.366977,0.1273218 -0.04996,-0.014151 -0.09083,0.031999 -0.09083,0.1025273 0,0.070539 -0.04624,0.099677 -0.10277,0.064741 -0.05652,-0.034925 -0.217738,0.043623 -0.358257,0.1745134 -0.140524,0.130917 -0.301582,0.2380313 -0.357911,0.2380313 -0.154676,0 -0.876578,0.777717 -0.876578,0.944356 0,0.08009 -0.0545,0.145617 -0.121107,0.145617 -0.06661,0 -0.121112,0.08175 -0.121112,0.18166 0,0.09992 -0.05772,0.1816665 -0.128252,0.1816665 -0.07054,0 -0.09811,0.04879 -0.06125,0.108418 0.03684,0.05963 -0.01442,0.139668 -0.113957,0.17786 -0.09953,0.03818 -0.180969,0.149687 -0.180969,0.247761 0,0.280616 -0.161235,0.30261 -0.4142742,0.0565 z"
     id="path987" />
</svg>
