<?xml version="1.0" encoding="UTF-8" standalone="no"?>
<svg
   width="28"
   height="28"
   viewBox="0 0 28 28"
   fill="none"
   version="1.1"
   id="svg4"
   sodipodi:docname="heart-fill.svg"
   inkscape:version="1.1.1 (3bf5ae0d25, 2021-09-20)"
   xmlns:inkscape="http://www.inkscape.org/namespaces/inkscape"
   xmlns:sodipodi="http://sodipodi.sourceforge.net/DTD/sodipodi-0.dtd"
   xmlns="http://www.w3.org/2000/svg"
   xmlns:svg="http://www.w3.org/2000/svg">
  <defs
     id="defs8" />
  <sodipodi:namedview
     id="namedview6"
     pagecolor="#ffffff"
     bordercolor="#666666"
     borderopacity="1.0"
     inkscape:pageshadow="2"
     inkscape:pageopacity="0.0"
     inkscape:pagecheckerboard="0"
     showgrid="false"
     inkscape:zoom="13.506753"
     inkscape:cx="21.692852"
     inkscape:cy="9.6988519"
     inkscape:window-width="1600"
     inkscape:window-height="875"
     inkscape:window-x="0"
     inkscape:window-y="0"
     inkscape:window-maximized="1"
     inkscape:current-layer="svg4" />
  <path
     style="fill:#e7f1d4;stroke-width:0.121108"
     d="m 5.4112922,21.571826 c 0,-0.02512 0.095373,-0.12052 0.2119391,-0.211937 0.1920826,-0.150643 0.1963667,-0.146359 0.045726,0.04573 -0.1582108,0.20173 -0.2576618,0.265886 -0.2576618,0.166209 z m 16.9396968,-0.16621 c -0.150639,-0.192086 -0.146357,-0.19637 0.04573,-0.04572 0.116565,0.09142 0.211939,0.186791 0.211939,0.211936 0,0.09968 -0.09945,0.03552 -0.257667,-0.16621 z M 5.5169506,6.8726281 c -0.150644,-0.1920868 -0.1463598,-0.1963712 0.045726,-0.045725 0.2017314,0.1582104 0.265887,0.2576666 0.1662115,0.2576666 -0.025126,0 -0.1205206,-0.095373 -0.211939,-0.2119392 z M 22.245333,7.0388399 c 0,-0.025131 0.09537,-0.1205209 0.211937,-0.2119392 0.192088,-0.1506438 0.196368,-0.1463594 0.04573,0.045725 -0.158215,0.201732 -0.257666,0.2658875 -0.257666,0.1662118 z"
     id="path999" />
  <path
     style="fill:#deecc4;stroke-width:0.121108"
     d="m 13.282646,22.308369 0.05988,-1.35691 0.03543,1.261123 c 0.0195,0.693621 -0.0074,1.304232 -0.05988,1.35691 -0.05241,0.05268 -0.06835,-0.514825 -0.03542,-1.261123 z m 1.507527,1.211775 c -0.03296,-0.08593 -0.04473,-1.026037 -0.02605,-2.089114 l 0.03387,-1.932868 0.06014,2.089269 c 0.0331,1.1491 0.04482,2.089203 0.02605,2.089116 -0.01878,-8.2e-5 -0.06106,-0.07046 -0.09404,-0.156403 z M 1.9182767,19.922038 c 0,-0.166523 0.027464,-0.234647 0.061088,-0.151386 0.033601,0.08326 0.033601,0.219511 0,0.302772 -0.033601,0.08326 -0.061088,0.01516 -0.061088,-0.151386 z m 2.0094379,-2.139051 c 0.083262,-0.0336 0.2195098,-0.0336 0.302771,0 0.083262,0.0336 0.015151,0.06109 -0.151385,0.06109 -0.1665234,0 -0.2346472,-0.02751 -0.151386,-0.06109 z m 19.8617494,0 c 0.08326,-0.0336 0.219505,-0.0336 0.30277,0 0.08326,0.0336 0.01517,0.06109 -0.151384,0.06109 -0.166528,0 -0.234649,-0.02751 -0.151386,-0.06109 z M 3.9905748,10.512778 c 0.1178337,-0.03071 0.2813316,-0.0287 0.3633249,0.0046 0.081993,0.03319 -0.014416,0.0583 -0.214246,0.05583 -0.1998278,-0.0023 -0.2669126,-0.02962 -0.1490789,-0.06032 z m 19.7406372,0 c 0.117835,-0.03071 0.281332,-0.0287 0.363324,0.0046 0.08199,0.03319 -0.01441,0.0583 -0.214244,0.05583 -0.199828,-0.0023 -0.266914,-0.02962 -0.14908,-0.06032 z m -8.94478,-3.7915355 c 0,-1.1656691 0.01816,-1.6425315 0.04037,-1.0596995 0.02221,0.5828346 0.02221,1.5365605 0,2.1193945 -0.02221,0.5828345 -0.04037,0.1059696 -0.04037,-1.059695 z M 1.9182767,8.4167546 c 0,-0.1665232 0.027464,-0.2346472 0.061088,-0.1513857 0.033601,0.083262 0.033601,0.2195103 0,0.3027713 -0.033601,0.083262 -0.061088,0.015153 -0.061088,-0.1513856 z M 13.329557,6.0551469 c 2.43e-4,-0.7993151 0.01981,-1.110547 0.04358,-0.6916276 0.02371,0.4189198 0.02353,1.0729041 -4.65e-4,1.4532978 -0.0239,0.3803934 -0.04331,0.037625 -0.04307,-0.7616702 z"
     id="path997" />
  <path
     style="fill:#cde2a8;stroke-width:0.121108"
     d="m 3.9277146,22.021778 c 0.083262,-0.0336 0.2195098,-0.0336 0.302771,0 0.083262,0.0336 0.015151,0.06109 -0.151385,0.06109 -0.1665234,0 -0.2346472,-0.02746 -0.151386,-0.06109 z m 19.8617494,0 c 0.08326,-0.0336 0.219505,-0.0336 0.30277,0 0.08326,0.0336 0.01517,0.06109 -0.151384,0.06109 -0.166528,0 -0.234649,-0.02746 -0.151386,-0.06109 z M 6.157061,19.922038 c 0,-0.166523 0.027511,-0.234647 0.061088,-0.151386 0.033601,0.08326 0.033601,0.219511 0,0.302772 -0.033601,0.08326 -0.061088,0.01516 -0.061088,-0.151386 z m 15.62296,0 c 0,-0.166523 0.02751,-0.234647 0.06108,-0.151386 0.03359,0.08326 0.03359,0.219511 0,0.302772 -0.0336,0.08326 -0.06108,0.01516 -0.06108,-0.151386 z M 6.157061,8.4167546 c 0,-0.1665232 0.027511,-0.2346472 0.061088,-0.1513857 0.033601,0.083262 0.033601,0.2195103 0,0.3027713 C 6.1845483,8.651402 6.157061,8.5832936 6.157061,8.4167546 Z M 21.770462,8.346108 c 0.0058,-0.1410821 0.03452,-0.1697816 0.07317,-0.073167 0.03497,0.087426 0.03067,0.1918813 -0.0096,0.2321248 -0.04023,0.040234 -0.06886,-0.031265 -0.06361,-0.1589567 z M 3.9277146,6.2777099 c 0.083262,-0.033597 0.2195098,-0.033597 0.302771,0 0.083262,0.033597 0.015151,0.061085 -0.151385,0.061085 -0.1665234,0 -0.2346472,-0.027508 -0.151386,-0.061085 z m 19.8617494,0 c 0.08326,-0.033597 0.219505,-0.033597 0.30277,0 0.08326,0.033597 0.01517,0.061085 -0.151384,0.061085 -0.166528,0 -0.234649,-0.027508 -0.151386,-0.061085 z"
     id="path995" />
  <path
     style="fill:#bcd886;stroke-width:0.121108"
     d="m 9.1050917,9.385622 c 0.1205621,-0.1332181 0.246452,-0.2422178 0.2797564,-0.2422178 0.033319,0 -0.03808,0.1089997 -0.1586495,0.2422178 -0.120562,0.1332182 -0.2464519,0.2422178 -0.2797563,0.2422178 -0.033327,0 0.03808,-0.1089996 0.1586494,-0.2422178 z"
     id="path993" />
  <path
     style="fill:#a4cb56;stroke-width:0.121108"
     d="m 13.987263,16.811602 c 0.08743,-0.03497 0.191881,-0.03067 0.232126,0.0096 0.04023,0.04023 -0.03126,0.06886 -0.158952,0.06362 -0.141086,-0.0058 -0.169782,-0.03452 -0.07318,-0.07317 z m -2.632108,-2.652299 c 0.0058,-0.141083 0.03452,-0.169783 0.07317,-0.07317 0.03497,0.08742 0.03067,0.19188 -0.0096,0.232124 -0.04024,0.04023 -0.06887,-0.03127 -0.06361,-0.158955 z m 5.328763,0 c 0.0058,-0.141083 0.03452,-0.169783 0.07317,-0.07317 0.03497,0.08742 0.03067,0.19188 -0.0096,0.232124 -0.04023,0.04023 -0.06886,-0.03127 -0.06361,-0.158955 z"
     id="path991" />
  <path
     style="fill:#93c226;stroke-width:0.121108"
     d="m 19.362345,14.169395 c 0.0023,-0.199827 0.02962,-0.266913 0.06031,-0.149078 0.03071,0.117834 0.0287,0.281331 -0.0046,0.363324 -0.03319,0.08199 -0.0583,-0.01441 -0.05583,-0.214246 z m -3.551198,-1.96801 c -0.15064,-0.192082 -0.14636,-0.196365 0.04573,-0.04572 0.116566,0.09142 0.211938,0.186791 0.211938,0.211939 0,0.09967 -0.09945,0.03551 -0.257667,-0.166217 z"
     id="path989" />
  <path
     style="fill:#88bc03;stroke-width:0.121108"
     d="m 13.736523,27.544901 c -0.117096,-0.06999 -0.266967,-0.09385 -0.333051,-0.05301 -0.06608,0.04082 -0.120149,0.01332 -0.120149,-0.06114 0,-0.07447 -0.05449,-0.101723 -0.121107,-0.06056 -0.06661,0.04115 -0.121106,0.01712 -0.121106,-0.05341 0,-0.07054 -0.05839,-0.128256 -0.129763,-0.128256 -0.167672,0 -0.47578,-0.308108 -0.47578,-0.475779 0,-0.07137 -0.06358,-0.129765 -0.141293,-0.129765 -0.07771,0 -0.107123,-0.03415 -0.06536,-0.07593 0.04175,-0.04174 -0.0053,-0.270391 -0.104619,-0.508064 -0.159478,-0.381683 -0.159676,-0.484311 -0.0018,-0.879211 0.09839,-0.245898 0.145467,-0.480507 0.104619,-0.521356 -0.04088,-0.04082 -0.01702,-0.07427 0.05289,-0.07427 0.06994,0 0.156726,-0.113045 0.19286,-0.251207 0.03611,-0.138162 0.178731,-0.280763 0.316896,-0.316893 0.138158,-0.03611 0.251204,-0.122919 0.251204,-0.192861 0,-0.06995 0.03584,-0.09131 0.07969,-0.04748 0.04385,0.04381 0.152828,0.019 0.242218,-0.05519 0.116795,-0.09693 0.162527,-0.487343 0.162527,-1.387432 0,-1.119965 -0.02513,-1.26599 -0.237311,-1.379554 -0.130523,-0.06985 -0.280393,-0.117324 -0.333045,-0.105502 -0.05267,0.01181 -0.235193,-0.01798 -0.405633,-0.06624 -0.170441,-0.04825 -0.388436,-0.100686 -0.484431,-0.11652 -0.096,-0.01585 -0.289997,-0.09237 -0.431111,-0.170084 -0.141114,-0.07771 -0.290985,-0.106884 -0.333046,-0.06481 -0.04207,0.04207 -0.07648,0.0037 -0.07648,-0.085 0,-0.08881 -0.03373,-0.12774 -0.07497,-0.0865 -0.04125,0.04125 -0.154628,-0.0047 -0.251982,-0.102037 -0.09736,-0.09735 -0.227113,-0.14604 -0.288353,-0.10819 -0.06124,0.03785 -0.111343,0.01109 -0.111343,-0.05944 0,-0.07054 -0.05579,-0.128257 -0.123958,-0.128257 -0.06818,0 -0.4905423,-0.353039 -0.9385889,-0.78453 C 8.9870828,18.58493 8.5562658,18.23069 8.47776,18.229214 c -0.078501,-0.0014 -0.2283719,0.08297 -0.333046,0.18764 -0.104674,0.104671 -0.1903112,0.159671 -0.1903112,0.122224 0,-0.09189 -1.248276,0.671336 -1.3606122,0.831914 -0.048939,0.06995 -0.089812,0.07787 -0.090832,0.01759 -9.422e-4,-0.06028 -0.1140531,-0.0081 -0.2511809,0.116034 -0.1638309,0.148268 -0.2405332,0.351954 -0.2236929,0.594035 0.028425,0.408264 -0.20116,0.977815 -0.5261263,1.305328 -0.1165665,0.117478 -0.211939,0.185093 -0.211939,0.150256 0,-0.03484 -0.122622,0.01565 -0.2724928,0.112198 -0.4293981,0.276636 -1.2874297,0.267972 -1.9074548,-0.01928 -0.4205187,-0.194807 -0.5933901,-0.365504 -0.756924,-0.747402 -0.2696909,-0.629803 -0.2696909,-1.325611 0,-1.955412 0.3586968,-0.837665 1.5435906,-1.216763 2.6042557,-0.833222 0.2495469,0.09023 0.4537268,0.206737 0.4537268,0.258893 0,0.05215 0.1907459,0.0037 0.423878,-0.107319 0.2331321,-0.111173 0.423878,-0.246538 0.423878,-0.300812 0,-0.05427 0.077857,-0.09868 0.1730136,-0.09868 0.095154,0 0.2683816,-0.09537 0.384948,-0.211936 0.1165657,-0.116568 0.2158345,-0.193274 0.2205901,-0.170467 0.016566,0.07935 0.6747469,-0.262605 0.6747469,-0.350552 0,-0.0487 0.1362485,-0.122737 0.3027718,-0.164534 0.1665226,-0.04178 0.302771,-0.132669 0.302771,-0.201935 0,-0.06927 0.050729,-0.0946 0.1127397,-0.05627 0.062002,0.03831 0.146968,0.01428 0.1888094,-0.05341 0.1494494,-0.241812 0.4097247,-0.115953 0.6846708,0.331072 0.3737748,0.607721 1.1872143,1.48358 1.3778553,1.48358 0.0843,0 0.185976,0.08521 0.225936,0.189334 0.03996,0.104139 0.127543,0.155421 0.194618,0.113962 0.06708,-0.04147 0.121967,-0.02426 0.121967,0.03818 0,0.09472 0.64732,0.435397 0.847757,0.446174 0.03332,0.0018 0.118873,0.04046 0.19015,0.08591 0.263809,0.168261 0.860756,0.25216 1.626472,0.228591 l 0.787204,-0.02421 v 2.033382 2.033383 l 0.484324,0.251488 c 0.266383,0.138317 0.502,0.343225 0.523594,0.455355 0.02161,0.112131 0.09885,0.203875 0.171674,0.203875 0.07283,0 0.09899,0.03341 0.05814,0.07427 -0.04083,0.04082 0.0063,0.275458 0.104618,0.521357 0.158009,0.394898 0.157812,0.497527 -0.0018,0.879211 -0.09931,0.237671 -0.146381,0.466301 -0.104613,0.508062 0.04179,0.04179 0.01235,0.07594 -0.06536,0.07594 -0.07771,0 -0.141294,0.0584 -0.141294,0.129765 0,0.167669 -0.308108,0.475779 -0.47578,0.475779 -0.07137,0 -0.129762,0.05772 -0.129762,0.128256 0,0.07054 -0.05449,0.09457 -0.121106,0.05341 -0.06661,-0.04115 -0.121108,-0.02879 -0.121108,0.02746 0,0.05626 -0.09537,0.108694 -0.211939,0.116504 -0.116569,0.0078 -0.320938,0.04656 -0.454156,0.0861 -0.133218,0.03955 -0.338022,0.01465 -0.455114,-0.05535 z M 23.759184,21.85369 c -1.157705,-0.127393 -1.75607,-0.770987 -1.75607,-1.888804 0,-0.398886 -0.05388,-0.554766 -0.211938,-0.613082 -0.116567,-0.04303 -0.239189,-0.114112 -0.272492,-0.158008 -0.104908,-0.138273 -1.751695,-1.026544 -1.846903,-0.996214 -0.04996,0.01593 -0.09083,-0.01679 -0.09083,-0.07273 0,-0.08968 -0.61144,-0.429686 -0.700703,-0.38964 -0.01903,0.0085 -0.117009,-0.06688 -0.217728,-0.167603 -0.151927,-0.151924 -0.157121,-0.230048 -0.03048,-0.458484 0.08395,-0.151442 0.141051,-0.316221 0.126898,-0.366179 -0.01415,-0.04996 0.02879,-0.09083 0.09538,-0.09083 0.06661,0 0.109531,-0.04088 0.09538,-0.09083 -0.01415,-0.04996 0.04225,-0.213455 0.125369,-0.363324 0.0831,-0.149871 0.115256,-0.272493 0.07145,-0.272493 -0.04381,0 -0.02591,-0.06812 0.03978,-0.151385 0.151423,-0.191942 0.167581,-0.346673 0.167581,-1.604685 0,-1.258007 -0.01615,-1.412742 -0.167581,-1.604684 -0.06568,-0.08326 -0.08359,-0.151386 -0.03978,-0.151386 0.0438,0 0.01167,-0.122622 -0.07145,-0.272491 -0.0831,-0.14987 -0.139521,-0.313368 -0.125369,-0.363325 0.01415,-0.04996 -0.02875,-0.09083 -0.09538,-0.09083 -0.06661,0 -0.109531,-0.04088 -0.09538,-0.09083 0.01415,-0.04996 -0.04654,-0.221446 -0.134873,-0.381083 -0.137592,-0.248669 -0.133459,-0.305445 0.02884,-0.396278 0.104196,-0.05831 0.283619,-0.200188 0.398716,-0.315286 0.115096,-0.115096 0.225016,-0.182018 0.244268,-0.148712 0.01928,0.03332 0.132139,-0.02261 0.250864,-0.124279 0.118728,-0.101658 0.254977,-0.183405 0.302772,-0.18166 0.0478,0.0018 0.184045,-0.080006 0.302772,-0.181664 0.118726,-0.1016567 0.254969,-0.1834037 0.302772,-0.1816597 0.0478,0.00181 0.184043,-0.080007 0.302771,-0.1816652 0.118725,-0.1016576 0.25497,-0.1834046 0.302765,-0.1816597 0.0478,0.00181 0.186459,-0.082072 0.308136,-0.1862548 0.121675,-0.1041811 0.314187,-0.2250954 0.427807,-0.2686942 0.143334,-0.055001 0.206574,-0.2168326 0.206574,-0.5286302 0,-0.7490825 0.245121,-1.232443 0.785623,-1.5491977 1.032661,-0.6051764 2.430434,-0.3113906 2.84616,0.5982097 0.490385,1.072955 0.208024,2.2727205 -0.642113,2.7283688 -0.595598,0.319223 -1.593227,0.319457 -2.077124,4.04e-4 -0.1975,-0.1301822 -0.388246,-0.1979492 -0.423882,-0.1505839 -0.03561,0.047364 -0.378151,0.2476969 -0.761156,0.4451899 -0.383004,0.197492 -0.696371,0.405078 -0.696371,0.461307 0,0.05622 -0.04404,0.075 -0.09788,0.04175 -0.05383,-0.03328 -0.251941,0.06234 -0.440228,0.212484 -0.314695,0.250925 -0.329146,0.296813 -0.178905,0.568053 0.0899,0.162295 0.172185,0.335955 0.182874,0.38591 0.01068,0.04996 0.02998,0.104459 0.04289,0.121112 0.0129,0.01665 0.04463,0.193035 0.07049,0.391964 0.02586,0.198931 0.109281,0.621294 0.185396,0.938588 0.103789,0.432644 0.103789,0.721157 0,1.153796 -0.07611,0.317296 -0.159548,0.739665 -0.185396,0.938594 -0.02587,0.198924 -0.05757,0.375313 -0.07049,0.391964 -0.0129,0.01665 -0.03223,0.07115 -0.04289,0.121111 -0.01068,0.04996 -0.09298,0.223616 -0.182874,0.385909 -0.150241,0.271244 -0.13579,0.317126 0.178905,0.568054 0.188287,0.150142 0.386394,0.245756 0.440228,0.212485 0.05383,-0.03328 0.09788,-0.01152 0.09788,0.04833 0,0.09472 0.607368,0.438655 0.700697,0.396786 0.01903,-0.0085 0.118295,0.06818 0.220588,0.170464 0.102296,0.102293 0.259301,0.185986 0.348907,0.185986 0.0896,0 0.183487,0.06171 0.208623,0.137119 0.03118,0.09357 0.177033,0.0692 0.459183,-0.0767 0.974398,-0.503883 2.276205,-0.112326 2.70694,0.81419 0.696233,1.497593 -0.339386,3.047601 -1.920005,2.873671 z M 12.775185,16.384969 c -1.267679,-0.781971 -1.634542,-2.265786 -0.884603,-3.577917 0.199828,-0.349632 0.405281,-0.635751 0.45656,-0.635817 0.05128,-6.7e-5 0.296523,-0.127409 0.544985,-0.282979 0.350595,-0.219509 0.614468,-0.28053 1.178398,-0.272493 2.017495,0.02875 3.220386,2.128403 2.207009,3.852327 -0.719631,1.224213 -2.323451,1.644077 -3.502349,0.916879 z M 8.7513702,11.792788 C 8.6234297,11.668357 8.4962029,11.589102 8.4686384,11.616662 8.4410831,11.64422 8.327758,11.58906 8.2168219,11.494076 8.1058865,11.399089 7.9667127,11.326473 7.9075512,11.332707 7.8483889,11.338925 7.766638,11.295768 7.7258864,11.23679 7.6249109,11.090632 6.3801552,10.339581 6.3801552,10.42481 c 0,0.03744 -0.085637,-0.01752 -0.1903113,-0.122229 -0.1046748,-0.104669 -0.2636267,-0.19031 -0.3532321,-0.19031 -0.089606,0 -0.1905629,-0.06812 -0.2243481,-0.1513867 C 5.5716662,9.8607941 5.5169365,9.8513719 5.4507898,9.9330546 5.0789561,10.392304 3.7329911,10.493986 3.0279191,10.116087 2.2035672,9.6742611 1.9043892,8.436774 2.3739119,7.4109471 2.753962,6.5806077 3.94823,6.2232017 4.9822186,6.6303631 5.6238809,6.8830355 6.0804136,7.5759362 6.025852,8.2143441 5.99573,8.5668618 6.329676,9.0677716 6.5174511,8.9517184 c 0.057703,-0.035658 0.104922,-0.01886 0.104922,0.037398 0,0.056224 0.3114768,0.2638087 0.6921774,0.4613013 0.380695,0.1974943 0.7660785,0.4272024 0.856407,0.5104633 0.2721762,0.250888 0.4155193,0.178954 1.2554715,-0.6300167 0.4431753,-0.4268312 0.830526,-0.7512989 0.860778,-0.7210475 0.03026,0.030256 0.12394,-0.028057 0.2082,-0.1295835 0.08426,-0.1015251 0.196503,-0.18459 0.249431,-0.18459 0.05293,0 0.359626,-0.1176002 0.681545,-0.2613372 0.321918,-0.1437371 0.639803,-0.2716823 0.706413,-0.2843245 0.06661,-0.012632 0.148359,-0.034422 0.181664,-0.048409 0.03333,-0.013962 0.266079,-0.04703 0.517278,-0.073443 0.251199,-0.026412 0.510069,-0.080982 0.575264,-0.1212761 0.190966,-0.1180217 0.151152,-2.7877323 -0.04399,-2.9496839 -0.08939,-0.074188 -0.19839,-0.099027 -0.242218,-0.055198 -0.0438,0.043828 -0.07969,0.022463 -0.07969,-0.04748 0,-0.069942 -0.113046,-0.1567291 -0.251204,-0.1928593 C 12.65174,4.2255043 12.509139,4.0828984 12.47301,3.9447362 12.4369,3.8065738 12.350091,3.693532 12.280149,3.693532 c -0.06994,0 -0.09375,-0.033424 -0.05289,-0.07427 0.04082,-0.040848 -0.0063,-0.2754586 -0.104619,-0.5213553 -0.158009,-0.3948982 -0.157812,-0.4975259 0.0018,-0.8792131 0.09931,-0.2376703 0.146382,-0.4662994 0.104619,-0.5080648 -0.04179,-0.041763 -0.01236,-0.075933 0.06536,-0.075933 0.07771,0 0.141293,-0.058391 0.141293,-0.1297581 0,-0.1676726 0.308109,-0.4757831 0.47578,-0.4757831 0.07137,0 0.129762,-0.0635813 0.129762,-0.1412924 0,-0.0777084 0.03415,-0.10712183 0.07594,-0.0653563 0.04175,0.0417624 0.270392,-0.005316 0.508065,-0.10461781 0.381684,-0.15947881 0.484312,-0.15967347 0.879211,-0.001642 0.245897,0.0983894 0.480509,0.14546708 0.521355,0.10461859 0.04083,-0.0408477 0.07427,-0.0106869 0.07427,0.0670215 0,0.0777084 0.05839,0.14129312 0.129763,0.14129312 0.167672,0 0.475781,0.3081105 0.475781,0.4757823 0,0.071368 0.06358,0.1297589 0.141293,0.1297589 0.0777,0 0.107874,0.033421 0.06702,0.074268 -0.04082,0.040848 0.0063,0.2754581 0.104619,0.5213551 0.15801,0.3948979 0.157812,0.4975261 -0.0018,0.8792127 -0.0993,0.2376705 -0.146383,0.4662994 -0.104615,0.5080647 0.04179,0.041762 0.01872,0.075937 -0.05123,0.075937 -0.06994,0 -0.156733,0.113042 -0.192862,0.2512042 -0.03611,0.1381623 -0.178731,0.2807655 -0.316897,0.3168952 -0.138158,0.036128 -0.251203,0.1170499 -0.251203,0.1798221 0,0.062771 -0.04833,0.084266 -0.107385,0.047762 -0.307471,-0.1900289 -0.38753,0.3289547 -0.352517,2.28533 l 0.03602,2.0129307 -0.787203,-0.023025 c -0.896198,-0.026184 -1.444414,0.056292 -1.84325,0.277344 -0.15188,0.084182 -0.31702,0.1414749 -0.366977,0.1273218 -0.04996,-0.014151 -0.09083,0.031999 -0.09083,0.1025273 0,0.070539 -0.04624,0.099677 -0.10277,0.064741 -0.05652,-0.034925 -0.217738,0.043623 -0.358257,0.1745134 -0.140524,0.130917 -0.301582,0.2380313 -0.357911,0.2380313 -0.154676,0 -0.8765782,0.777717 -0.8765782,0.944356 0,0.08009 -0.054497,0.145617 -0.121107,0.145617 -0.066607,0 -0.1211117,0.08175 -0.1211117,0.18166 0,0.09992 -0.057719,0.181666 -0.1282516,0.181666 -0.070539,0 -0.098106,0.04879 -0.061252,0.108418 0.036845,0.05963 -0.014416,0.139668 -0.113957,0.17786 -0.099534,0.03818 -0.180969,0.149687 -0.180969,0.247761 0,0.280616 -0.1612354,0.30261 -0.4142746,0.0565 z"
     id="path987" />
  <path
     style="fill:#7fb800;stroke-width:0.121108"
     d="m 13.449735,22.283646 c 2.44e-4,-0.732699 0.02023,-1.016832 0.04431,-0.631395 0.02413,0.385436 0.0239,0.984924 -4.64e-4,1.332191 -0.0244,0.347268 -0.04412,0.03191 -0.04385,-0.700796 z m 1.215083,-0.666092 c 0,-1.099061 0.01835,-1.548671 0.04079,-0.999145 0.02243,0.549529 0.02243,1.448758 0,1.998287 -0.02243,0.54953 -0.04079,0.09991 -0.04079,-0.999142 z M 3.9291289,21.895223 c 0.150644,-0.02897 0.3686386,-0.02788 0.4844318,0.0023 0.1157871,0.03031 -0.00743,0.05402 -0.273907,0.05267 -0.2664365,-0.0014 -0.3611735,-0.02614 -0.2105248,-0.05512 z m 19.7406371,0 c 0.15065,-0.02897 0.368646,-0.02788 0.484431,0.0023 0.115793,0.03031 -0.0074,0.05402 -0.273905,0.05267 -0.266437,-0.0014 -0.361173,-0.02614 -0.210526,-0.05512 z M 2.0532476,19.922038 c 0,-0.299741 0.023617,-0.422367 0.05248,-0.272492 0.028879,0.14987 0.028879,0.395114 0,0.544983 -0.028879,0.149873 -0.05248,0.02723 -0.05248,-0.272491 z m 3.9916828,0.121107 c 0,-0.233132 0.024946,-0.328505 0.055389,-0.21194 0.030482,0.116567 0.030482,0.307312 0,0.423878 -0.030482,0.116565 -0.055389,0.02119 -0.055389,-0.211938 z M 21.87902,19.897389 c -0.03214,-0.313295 -0.01364,-0.524848 0.0411,-0.470113 0.05473,0.05473 0.08102,0.31107 0.05842,0.569633 l -0.0411,0.470115 z m 4.030098,0.08521 c 0.0015,-0.266437 0.02614,-0.361174 0.05512,-0.210525 0.02897,0.150643 0.02787,0.368638 -0.0023,0.484431 -0.03031,0.115788 -0.05402,-0.0074 -0.05267,-0.273906 z m -15.228765,0.06194 c -0.04243,-0.06865 0.0062,-0.08895 0.113961,-0.04759 0.209811,0.08051 0.248201,0.167318 0.074,0.167318 -0.06268,0 -0.147257,-0.05387 -0.187954,-0.119724 z m 2.572696,-0.44492 c 0.08326,-0.0336 0.219505,-0.0336 0.302771,0 0.08326,0.03359 0.01515,0.06109 -0.151386,0.06109 -0.166528,0 -0.234647,-0.02751 -0.151385,-0.06109 z m -4.0874042,-0.707 C 8.8714702,18.592877 8.6580294,18.347635 8.6913346,18.347635 c 0.033319,0 0.3012418,0.245242 0.5954172,0.544983 0.2941754,0.299742 0.5076153,0.54499 0.474311,0.54499 -0.033327,0 -0.3012426,-0.245248 -0.595418,-0.54499 z m 0.9026152,-0.93859 -0.4787372,-0.51471 0.5147112,0.478736 c 0.478677,0.44522 0.570361,0.550687 0.478731,0.550687 -0.01977,0 -0.251403,-0.231624 -0.514705,-0.514713 z M 3.8671615,17.90082 c 0.1165657,-0.03043 0.3073116,-0.03043 0.423878,0 0.1165657,0.03048 0.021194,0.05539 -0.2119389,0.05539 -0.2331322,0 -0.3285055,-0.02495 -0.2119391,-0.05539 z m 19.8617475,0 c 0.116567,-0.03043 0.307313,-0.03043 0.423879,0 0.116567,0.03048 0.02119,0.05539 -0.211938,0.05539 -0.233138,0 -0.32851,-0.02495 -0.211941,-0.05539 z M 8.9234269,16.531008 c -0.1091505,-0.07054 -0.124091,-0.118141 -0.037439,-0.119259 0.079334,-9.96e-4 0.1779209,0.05265 0.2190892,0.119259 0.092924,0.150355 0.051003,0.150355 -0.1816648,0 z M 20.68049,15.128171 c 0.0058,-0.141089 0.03452,-0.169783 0.07317,-0.07317 0.03497,0.08743 0.03067,0.191876 -0.0096,0.232126 -0.04023,0.04023 -0.06886,-0.03131 -0.06361,-0.158958 z m -1.332193,-0.242219 c 0.0058,-0.141082 0.03452,-0.169782 0.07317,-0.07317 0.03497,0.08742 0.03067,0.191881 -0.0096,0.232125 -0.04023,0.04023 -0.06886,-0.03131 -0.06361,-0.158956 z m 0,-1.453299 c 0.0058,-0.141083 0.03452,-0.169783 0.07317,-0.07317 0.03497,0.08743 0.03067,0.191881 -0.0096,0.232124 -0.04023,0.04023 -0.06886,-0.03127 -0.06361,-0.158955 z m 1.332193,-0.363325 c 0.0058,-0.141081 0.03452,-0.169781 0.07317,-0.07317 0.03497,0.08743 0.03067,0.191882 -0.0096,0.232127 -0.04023,0.04022 -0.06886,-0.03131 -0.06361,-0.158958 z M 10.255619,10.172825 c 0.225964,-0.2331332 0.43809,-0.423879 0.471395,-0.423879 0.03333,0 -0.124324,0.1907458 -0.350288,0.423879 -0.22596,0.233131 -0.4380864,0.423878 -0.4713907,0.423878 -0.033327,0 0.1243197,-0.190747 0.3502837,-0.423878 z m -6.4490114,0.217298 c 0.1498709,-0.02888 0.3951142,-0.02888 0.544985,0 0.1498708,0.02888 0.027237,0.05248 -0.272492,0.05248 -0.2997417,0 -0.4223629,-0.02362 -0.272493,-0.05248 z m 19.8617454,0 c 0.149875,-0.02888 0.395119,-0.02888 0.54499,0 0.149868,0.02888 0.02723,0.05248 -0.272493,0.05248 -0.299748,0 -0.422368,-0.02362 -0.272497,-0.05248 z M 9.1605828,9.4764551 C 9.6624537,8.9417365 9.7711875,8.84559 9.7711875,8.9365273 c 0,0.019453 -0.2588704,0.2783058 -0.575263,0.5752635 L 8.620656,10.051717 Z M 2.0532476,8.4167546 c 0,-0.2997412 0.023617,-0.4223631 0.05248,-0.2724922 0.028879,0.1498703 0.028879,0.3951136 0,0.5449889 -0.028879,0.1498709 -0.05248,0.027236 -0.05248,-0.2724967 z M 21.876093,8.38334 c 0.05894,-0.4989596 0.06147,-0.5014866 0.102551,-0.1025501 0.02316,0.2249476 -0.0041,0.4551498 -0.06044,0.5115519 -0.05641,0.056406 -0.07536,-0.1276477 -0.04212,-0.4090018 z m -8.560189,0.3128321 c 0.117839,-0.030716 0.281331,-0.028699 0.363324,0.00459 0.082,0.033187 -0.01441,0.058296 -0.214241,0.05583 C 13.26516,8.7543212 13.198071,8.7269816 13.315904,8.69628 Z M 25.909118,8.3562199 c 0.0015,-0.2664367 0.02614,-0.3611736 0.05512,-0.2105297 0.02897,0.1506487 0.02787,0.3686436 -0.0023,0.4844358 -0.03031,0.1157879 -0.05401,-0.00747 -0.05267,-0.2739061 z M 6.0449304,8.295666 c 0,-0.233132 0.024946,-0.328505 0.055389,-0.2119393 0.030482,0.1165662 0.030482,0.3073122 0,0.4238784 -0.030482,0.1165657 -0.055389,0.021193 -0.055389,-0.2119391 z M 14.665069,6.660703 c -1.19e-4,-1.13236 0.01809,-1.6118997 0.04047,-1.0656411 0.02238,0.5462572 0.02251,1.4727337 2.01e-4,2.058841 C 14.6835,8.2400057 14.66518,7.7930668 14.66505,6.660703 Z m -2.009993,0.9466901 c 0.08743,-0.034971 0.191881,-0.030666 0.232126,0.00957 0.04023,0.040235 -0.03131,0.068866 -0.158956,0.06361 -0.141088,-0.00581 -0.169784,-0.034511 -0.07317,-0.073173 z m 0.795589,-1.5522283 c 2.42e-4,-0.7993151 0.01987,-1.1105474 0.04358,-0.6916276 0.02371,0.4189199 0.02353,1.0729046 -4.65e-4,1.4532978 -0.0239,0.3803934 -0.04331,0.037625 -0.04307,-0.7616702 z M 3.9291289,6.3933871 c 0.150644,-0.028977 0.3686386,-0.027874 0.4844318,0.00227 0.1157871,0.030301 -0.00743,0.054012 -0.273907,0.052672 -0.2664365,-0.00138 -0.3611735,-0.026134 -0.2105248,-0.055114 z m 19.7406371,0 c 0.15065,-0.028977 0.368646,-0.027874 0.484431,0.00227 0.115793,0.030301 -0.0074,0.054012 -0.273905,0.052672 -0.266437,-0.00139 -0.361173,-0.026135 -0.210526,-0.055115 z"
     id="path985" />
</svg>
