<?xml version="1.0" encoding="UTF-8" standalone="no"?>
<svg
   width="28"
   height="28"
   viewBox="0 0 28 28"
   fill="none"
   version="1.1"
   id="svg4"
   sodipodi:docname="home-fill.svg"
   inkscape:version="1.1.1 (3bf5ae0d25, 2021-09-20)"
   xmlns:inkscape="http://www.inkscape.org/namespaces/inkscape"
   xmlns:sodipodi="http://sodipodi.sourceforge.net/DTD/sodipodi-0.dtd"
   xmlns="http://www.w3.org/2000/svg"
   xmlns:svg="http://www.w3.org/2000/svg">
  <defs
     id="defs8" />
  <sodipodi:namedview
     id="namedview6"
     pagecolor="#ffffff"
     bordercolor="#666666"
     borderopacity="1.0"
     inkscape:pageshadow="2"
     inkscape:pageopacity="0.0"
     inkscape:pagecheckerboard="0"
     showgrid="false"
     inkscape:zoom="24.821429"
     inkscape:cx="14.020144"
     inkscape:cy="14.020144"
     inkscape:window-width="1600"
     inkscape:window-height="875"
     inkscape:window-x="0"
     inkscape:window-y="0"
     inkscape:window-maximized="1"
     inkscape:current-layer="svg4" />
  <path
     d="M23.3801 7.95663L16.6601 3.25497C14.8284 1.97163 12.0168 2.04163 10.2551 3.40663L4.41011 7.9683C3.24344 8.8783 2.32178 10.745 2.32178 12.215V20.265C2.32178 23.24 4.73678 25.6666 7.71178 25.6666H20.2884C23.2634 25.6666 25.6784 23.2516 25.6784 20.2766V12.3666C25.6784 10.7916 24.6634 8.85497 23.3801 7.95663ZM14.8751 21C14.8751 21.4783 14.4784 21.875 14.0001 21.875C13.5218 21.875 13.1251 21.4783 13.1251 21V17.5C13.1251 17.0216 13.5218 16.625 14.0001 16.625C14.4784 16.625 14.8751 17.0216 14.8751 17.5V21Z"
     fill="#0A60C2"
     id="path2"
     style="fill:#0A60C2;fill-opacity:1" />
</svg>
